<?xml version="1.0" encoding="iso-8859-1"?>
<!-- Generator: Adobe Illustrator 21.0.2, SVG Export Plug-In . SVG Version: 6.00 Build 0)  -->
<svg version="1.1" xmlns="http://www.w3.org/2000/svg" xmlns:xlink="http://www.w3.org/1999/xlink" x="0px" y="0px"
	 viewBox="0 0 25.457 25.718" style="enable-background:new 0 0 25.457 25.718;" xml:space="preserve">
<g id="Switch_x5F_Communications_x5F_LLC">
	<path d="M11.468,0.075c4.902-0.565,9.969,2.095,12.36,6.396c2.811,4.923,1.943,11.776-2.271,15.642
		c-2.47,2.357-5.877,3.756-9.308,3.591c-3.166-0.04-6.214-1.473-8.468-3.66c-3.492-3.373-4.711-8.85-3.04-13.401
		C2.312,4.064,6.628,0.545,11.468,0.075z M6.374,8.539c-0.798,2.035,0.719,4.501,2.897,4.699c2.261,0.113,4.537-0.021,6.8,0.077
		c1.585,0.142,2.65,2.087,1.868,3.483c-0.656,1.442-2.379,1.475-3.733,1.4c-0.876,0.481-1.558,1.292-2.371,1.885
		c-0.009-0.576-0.007-1.151-0.004-1.726c-0.865-0.436-1.919,0.029-2.836-0.272c-1.034-0.27-1.718-1.281-1.789-2.317
		c-0.358-0.013-0.716-0.01-1.074-0.002c-0.02,1.702,1.332,3.323,3.046,3.498c0.493,0.077,1.033-0.063,1.498,0.08
		c0.261,0.732-0.397,2.134,0.749,2.32c1.569-0.449,2.354-2.724,4.199-2.369c2.144,0.159,4.024-1.994,3.638-4.092
		c-0.237-1.66-1.771-3.03-3.457-3.015c-2.144-0.004-4.288-0.048-6.433-0.054c-1.551-0.133-2.552-1.994-1.903-3.385
		c0.442-0.857,1.383-1.48,2.362-1.451c2.02,0.014,4.041-0.004,6.06,0.019c1.258,0.046,2.325,1.141,2.386,2.391
		c0.359,0.003,0.724,0.035,1.075-0.062c-0.02-1.76-1.522-3.34-3.282-3.432c-2.144-0.015-4.287-0.007-6.431-0.013
		C8.19,6.154,6.866,7.212,6.374,8.539z"/>
</g>
<g id="Layer_1">
</g>
</svg>
