<?xml version="1.0" encoding="iso-8859-1"?>
<!-- Generator: Adobe Illustrator 19.2.0, SVG Export Plug-In . SVG Version: 6.00 Build 0)  -->
<svg version="1.1" xmlns="http://www.w3.org/2000/svg" xmlns:xlink="http://www.w3.org/1999/xlink" x="0px" y="0px"
	 viewBox="0 0 79.555 75.838" style="enable-background:new 0 0 79.555 75.838;" xml:space="preserve">
<g id="Serfontana">
	<path style="fill-rule:evenodd;clip-rule:evenodd;" d="M73.793,52.85c-0.501,0.631-1.059,1.178-1.722,1.722
		c-0.599,0.491-1.443,0.962-1.722,1.672c-0.358,0.911-0.304,1.95-0.506,2.785c-1.488,6.123-4.634,10.447-9.319,13.473
		c-2.729,1.762-5.733,2.79-9.826,3.241c-2.224,0.245-4.046-0.021-5.976-0.354c-0.813-0.141-1.713-0.416-2.482-0.76
		c-0.591-0.265-1.763-0.942-2.532-0.861c-0.853,0.091-1.704,0.609-2.431,0.861c-2.339,0.81-5.524,1.284-8.711,0.912
		c-7.767-0.908-12.713-4.789-16.105-10.028c-1.34-2.069-2.223-4.179-2.887-6.939c-0.197-0.819-0.217-1.786-0.506-2.734
		c-0.204-0.667-1.142-1.295-1.772-1.823c-1.911-1.604-3.284-3.404-4.558-5.622C1.037,45.439,0,42.3,0,37.605
		c0-6.708,2.389-11.2,5.673-14.688c1.078-1.145,2.296-2.062,3.444-3.292C9.941,13.799,12.088,9.327,15.6,6.052
		c3.435-3.204,7.758-5.702,13.978-6.027c2.858-0.149,5.766,0.397,7.952,1.216c0.769,0.288,1.467,0.801,2.178,0.811
		c0.837,0.01,1.767-0.612,2.431-0.861c2.282-0.856,5.628-1.197,8.661-0.911c3.711,0.349,7.032,1.665,9.623,3.393
		c4.449,2.968,7.964,7.411,9.268,13.523c0.178,0.835,0.119,1.85,0.456,2.785c0.209,0.583,0.997,1.059,1.519,1.52
		c3.785,3.334,6.468,7.28,7.597,13.371c0.697,3.759,0.045,7.587-0.912,10.585C77.395,48.449,75.808,50.639,73.793,52.85z
		 M29.274,10.61c-2.193,0.221-3.996,0.987-5.47,2.128c-2.444,1.891-4.471,4.994-4.406,9.065c0.084,5.255,3.643,8.896,7.395,10.636
		c1.06,0.492,2.352,1.045,3.748,0.861c0.204-0.508-0.247-0.877-0.456-1.267c-1.422-2.654-2.596-6.261-2.583-10.18
		c0.011-3.277,0.763-6.056,1.671-8.66c0.325-0.76,0.91-1.517,0.962-2.381C29.974,10.465,29.528,10.584,29.274,10.61z M39.809,26.665
		c0.711-1.198,1.66-2.168,2.33-3.343c1.879-1.946,4.012-3.594,6.635-4.812c2.253-1.046,4.894-1.948,7.901-2.127
		c0.355-0.021,0.938,0.142,1.165-0.304c-0.002-0.718-0.621-1.269-1.064-1.772c-1.591-1.812-4.07-3.177-7.09-3.495
		c-2.959-0.312-5.735,0.654-7.445,2.076c-2.843,2.365-5.337,6.734-4.355,12.055c0.171,0.93,0.347,1.981,1.013,2.685
		C39.428,27.587,39.597,27.022,39.809,26.665z M49.685,32.54c4.093,0.248,7.988,1.628,10.788,3.495
		c2.039,1.358,4.047,3.156,5.47,5.217c0.321,0.466,1.116,1.979,1.671,1.924c0.678-0.068,1.166-2.556,1.266-3.14
		c0.89-5.218-1.903-9.107-4.71-11.143c-1.745-1.1-4.187-2.038-6.837-1.874c-3.102,0.192-5.675,1.365-7.496,2.836
		c-0.811,0.655-1.671,1.423-1.925,2.381C48.339,32.711,49.11,32.505,49.685,32.54z M29.578,43.227
		c-7.361-0.367-12.789-4.119-16.207-8.66c-0.383-0.509-1.138-1.976-1.671-1.925c-0.114,0.011-0.121,0.048-0.253,0.101
		c-2.379,4.029-0.886,9.768,1.57,12.358c1.64,1.73,3.821,3.153,6.432,3.546c4.937,0.74,9.063-1.608,11.244-4.053
		c0.263-0.294,0.722-0.653,0.607-1.113C30.896,43.06,30.191,43.258,29.578,43.227z M50.647,65.107
		c4.469-0.669,7.752-3.769,8.863-7.749c1.925-6.897-3.008-12.308-7.344-14.182c-0.876-0.379-2.564-0.891-3.444-0.709
		c-0.305,0.429,0.122,0.926,0.304,1.267c1.489,2.795,2.747,6.373,2.735,10.585c-0.009,3.191-0.652,5.968-1.621,8.256
		c-0.328,0.775-0.883,1.508-0.861,2.38C49.643,65.337,50.216,65.171,50.647,65.107z M39.201,49.76
		c-2.529,3.972-6.578,7.158-11.548,8.661c-1.046,0.316-2.237,0.661-3.444,0.809c-0.99,0.123-2.255-0.134-2.735,0.558
		c0.11,0.774,0.756,1.414,1.317,1.975c1.654,1.654,4.069,3.01,7.04,3.19c3.934,0.239,6.439-1.273,8.508-3.14
		c2.3-2.28,4.104-7.088,2.988-11.699c-0.149-0.617-0.417-2.042-1.063-1.925C39.811,48.605,39.521,49.257,39.201,49.76z"/>
</g>
<g id="Layer_1">
</g>
</svg>
